<?xml version="1.0" encoding="UTF-8"?>
<svg id="Layer_2" data-name="Layer 2" xmlns="http://www.w3.org/2000/svg" viewBox="0 0 169.29 120.83">
  <defs>
    <style>
      .cls-1 {
        fill: #910000;
      }

      .cls-2 {
        fill: #fff;
      }
    </style>
  </defs>
  <g id="Layer_1-2" data-name="Layer 1">
    <g>
      <polygon points="58.93 77.38 51.75 76.69 62.6 46.73 70.25 47.41 58.93 77.38"/>
      <circle cx="124.61" cy="25.72" r="22.7"/>
      <path d="M28.83,116.66v-16.9H0v-5.54l27.69-39.62h9.07v38.57h8.69v6.59h-8.69v16.9h-7.92ZM28.83,93.17v-20.72c0-3.25.09-6.49.29-9.74h-.29c-1.91,3.63-3.44,6.3-5.16,9.17l-15.18,21.1v.19h20.34Z"/>
      <path d="M152.68,115.57v-16.9h-28.83v-5.54l27.69-39.62h9.07v38.57h8.69v6.59h-8.69v16.9h-7.92ZM152.68,92.09v-20.72c0-3.25.09-6.49.29-9.74h-.29c-1.91,3.63-3.44,6.3-5.16,9.17l-15.18,21.1v.19h20.34Z"/>
      <g id="big-circle">
        <animateTransform attributeName="transform"
                          type="rotate"
                          values="-2 84.75 86.43; 1.4 84.75 86.43; -1.8 84.75 86.43; 2.2 84.75 86.43; -0.6 84.75 86.43; 0 84.75 86.43; -2 84.75 86.43"
                          keyTimes="0; 0.18; 0.35; 0.56; 0.74; 0.9; 1"
                          dur="5.6s"
                          repeatCount="indefinite"/>
        <circle cx="84.75" cy="86.43" r="34.4"/>
        <circle class="cls-1" cx="84.75" cy="86.43" r="8.04"/>
        <path id="holder_big" class="cls-2" d="M92.4,77.9c-3.85-3.46-9.56-3.93-13.93-1.05-3.22,2.12-5.16,5.7-5.17,9.52-.01,3.85,1.9,7.42,5.1,9.57,5.67,3.81,13.37,1.82,16.53-4.26,2.43-4.67,1.32-10.33-2.53-13.78ZM91.12,88.04l1.71-.03c-.58,3.17-3.14,5.83-6.43,6.49-.06-.59,0-1.14-.03-1.72-.04-.91-.78-1.57-1.65-1.56-.85.01-1.58.75-1.57,1.65,0,.54-.05,1,.04,1.63-3.25-.59-5.91-3.25-6.49-6.5.65.06,1.16.04,1.72.03.92-.03,1.57-.81,1.55-1.64-.02-.88-.72-1.57-1.65-1.58-.54,0-1.06.04-1.62-.02.67-3.32,3.31-5.84,6.5-6.44-.09.62-.03,1.09-.04,1.62-.01.92.71,1.64,1.58,1.65.89.02,1.65-.71,1.65-1.65,0-.55-.02-1.06.02-1.61,3.3.67,5.8,3.24,6.45,6.49-.66-.04-1.32-.1-1.98,0-.83.13-1.38.93-1.31,1.69.07.82.72,1.45,1.57,1.49Z"/>
      </g>
      <circle class="cls-1" cx="124.61" cy="25.72" r="8.04"/>
      <path id="holder_big-2" data-name="holder_big" class="cls-2" d="M132.26,17.19c-3.85-3.46-9.56-3.93-13.93-1.05-3.22,2.12-5.16,5.7-5.17,9.52-.01,3.85,1.9,7.42,5.1,9.57,5.67,3.81,13.37,1.82,16.53-4.26,2.43-4.67,1.32-10.33-2.53-13.78ZM130.98,27.33l1.71-.03c-.58,3.17-3.14,5.83-6.43,6.49-.06-.59,0-1.14-.03-1.72-.04-.91-.78-1.57-1.65-1.56-.85.01-1.58.75-1.57,1.65,0,.54-.05,1,.04,1.63-3.25-.59-5.91-3.25-6.49-6.5.65.06,1.16.04,1.72.03.92-.03,1.57-.81,1.55-1.64-.02-.88-.72-1.57-1.65-1.58-.54,0-1.06.04-1.62-.02.67-3.32,3.31-5.84,6.5-6.44-.09.62-.03,1.09-.04,1.62-.01.92.71,1.64,1.58,1.65.89.02,1.65-.71,1.65-1.65,0-.55-.02-1.06.02-1.61,3.3.67,5.8,3.24,6.45,6.49-.66-.04-1.32-.1-1.98,0-.83.13-1.38.93-1.31,1.69.07.82.72,1.45,1.57,1.49Z"/>
      <polygon points="87.45 7.92 82.08 0 126.29 4.07 126.65 11.75 87.45 7.92"/>
    </g>
  </g>
</svg>