<?xml version="1.0" encoding="UTF-8"?>
<svg id="Layer_2" data-name="Layer 2" xmlns="http://www.w3.org/2000/svg" viewBox="0 0 101.51 163.58">
  <defs>
    <style>
      .cls-1 {
        fill: #111;
      }

      .cls-2 {
        fill: #910000;
      }

      .cls-3 {
        fill: none;
      }
    </style>
  </defs>
  <g id="Layer_1-2" data-name="Layer 1">
    <g>
      <rect class="cls-3" width="101.51" height="163.58"/>
      <g>
        <circle cx="50.75" cy="113.36" r="36.25"/>
        <circle class="cls-2" cx="50.75" cy="113.36" r="8.47"/>
        <circle cx="50.75" cy="29.76" r="15.04"/>
        <circle class="cls-2" cx="50.75" cy="29.76" r="8.47"/>
        <rect x="-12.58" y="62.59" width="82" height="4" transform="translate(-41.23 75.93) rotate(-75.49)"/>
        <path id="holder_big" class="cls-1" d="M58.81,104.37c-4.06-3.64-10.07-4.14-14.68-1.11-3.4,2.24-5.43,6.01-5.45,10.03-.01,4.06,2,7.82,5.37,10.09,5.98,4.02,14.08,1.92,17.42-4.49,2.56-4.92,1.39-10.88-2.66-14.52ZM57.46,115.06l1.8-.03c-.62,3.34-3.3,6.14-6.78,6.84-.06-.62,0-1.2-.03-1.82-.04-.96-.83-1.65-1.74-1.64-.9.01-1.66.79-1.65,1.74,0,.57-.05,1.06.04,1.72-3.42-.63-6.23-3.42-6.84-6.85.68.07,1.22.04,1.81.03.97-.03,1.66-.85,1.64-1.73-.02-.93-.76-1.65-1.74-1.67-.57,0-1.12.04-1.71-.02.71-3.49,3.49-6.16,6.85-6.78-.1.65-.04,1.15-.04,1.71-.01.97.75,1.73,1.66,1.74.94.02,1.74-.74,1.74-1.74,0-.58-.02-1.12.03-1.7,3.48.71,6.11,3.42,6.79,6.84-.7-.04-1.39-.1-2.09,0-.87.14-1.45.98-1.38,1.78.08.86.76,1.53,1.65,1.57Z"/>
        <path id="holder" class="cls-1" d="M58.82,20.77c-4.06-3.64-10.07-4.14-14.68-1.11-3.4,2.24-5.43,6.01-5.45,10.03-.01,4.06,2,7.82,5.37,10.09,5.98,4.02,14.08,1.92,17.42-4.49,2.56-4.92,1.39-10.88-2.66-14.52ZM57.47,31.45l1.8-.03c-.62,3.34-3.3,6.14-6.78,6.84-.06-.62,0-1.2-.03-1.82-.04-.96-.83-1.65-1.74-1.64-.9.01-1.66.79-1.65,1.74,0,.57-.05,1.06.04,1.72-3.42-.63-6.23-3.42-6.84-6.85.68.07,1.22.04,1.81.03.97-.03,1.66-.85,1.64-1.73-.02-.93-.76-1.65-1.74-1.67-.57,0-1.12.04-1.71-.02.71-3.49,3.49-6.16,6.85-6.78-.1.65-.04,1.15-.04,1.71-.01.97.75,1.73,1.66,1.74.94.02,1.74-.74,1.74-1.74,0-.58-.02-1.12.03-1.7,3.48.71,6.11,3.42,6.79,6.84-.7-.04-1.39-.1-2.09,0-.87.14-1.45.98-1.38,1.78.08.86.76,1.53,1.65,1.57Z"/>
      </g>
    </g>
  </g>
</svg>