<?xml version="1.0" encoding="UTF-8"?>
<svg id="Layer_2" data-name="Layer 2" xmlns="http://www.w3.org/2000/svg" viewBox="0 0 68.01 79.09">
  <defs>
    <style>
      .cls-1 {
        fill: #910000;
      }

      .cls-2 {
        fill: #fff;
      }
    </style>
  </defs>
  <g id="Layer_1-2" data-name="Layer 1">
    <g>
      <polygon points="9.12 66.6 1.08 70.6 14.26 13.35 21.44 13.99 9.12 66.6"/>
      <g>
        <g>
          <path d="M68.01,79.09H0c0-2.92.37-5.75,1.11-8.48v-.05c1.81-7.04,5.79-13.16,11.21-17.65,5.88-4.91,13.48-7.83,21.68-7.83,18.81,0,34.01,15.24,34.01,34.01Z"/>
          <path class="cls-1" d="M41.98,79.09h-15.89c0-.56.05-1.07.14-1.62.65-3.1,3.1-5.56,6.25-6.16.51-.09,1.02-.14,1.53-.14.56,0,1.07.05,1.62.14,3.1.65,5.61,3.1,6.21,6.25.09.51.14,1.02.14,1.53Z"/>
          <path id="holder_big" class="cls-2" d="M41.56,70.66c-3.8-3.43-9.45-3.89-13.76-1.02-3.2,2.08-5.1,5.65-5.1,9.41v.05h6.58v-.05c-.05-.83-.74-1.53-1.62-1.53-.51-.05-.97,0-1.44-.05h-.19c.65-3.29,3.29-5.79,6.44-6.35v.19c-.09.51-.05.93-.05,1.39,0,.93.7,1.62,1.58,1.67.88,0,1.62-.7,1.62-1.67,0-.46-.05-.93,0-1.39v-.19c3.29.65,5.75,3.2,6.39,6.44h-.19c-.6-.05-1.16-.14-1.76,0-.79.09-1.34.83-1.3,1.53h6.58c0-3.15-1.34-6.25-3.8-8.43Z"/>
        </g>
        <circle cx="34.02" cy="21.3" r="21.3"/>
        <circle class="cls-1" cx="33.59" cy="21.3" r="7.95"/>
        <path id="holder_big-2" data-name="holder_big" class="cls-2" d="M41.15,12.87c-3.81-3.42-9.45-3.88-13.78-1.04-3.19,2.1-5.1,5.64-5.11,9.42-.01,3.81,1.87,7.34,5.04,9.46,5.61,3.77,13.22,1.8,16.35-4.21,2.4-4.62,1.31-10.21-2.5-13.63ZM39.88,22.89l1.69-.03c-.58,3.13-3.1,5.76-6.36,6.42-.06-.58,0-1.13-.03-1.7-.04-.9-.78-1.55-1.63-1.54-.84.01-1.56.74-1.55,1.63,0,.53-.05.99.04,1.62-3.21-.59-5.85-3.21-6.42-6.43.64.06,1.15.04,1.7.03.91-.03,1.56-.8,1.54-1.62-.02-.87-.71-1.55-1.63-1.57-.54,0-1.05.04-1.6-.02.67-3.28,3.28-5.78,6.42-6.37-.09.61-.03,1.08-.04,1.6-.01.91.7,1.62,1.56,1.64.88.02,1.63-.7,1.63-1.64,0-.54-.02-1.05.02-1.59,3.26.66,5.74,3.21,6.38,6.42-.66-.04-1.3-.1-1.96,0-.82.13-1.36.92-1.3,1.67.07.81.71,1.43,1.55,1.47Z"/>
      </g>
    </g>
  </g>
</svg>