<?xml version="1.0" encoding="UTF-8"?>
<svg id="Layer_2" data-name="Layer 2" xmlns="http://www.w3.org/2000/svg" viewBox="0 0 110.14 22.85">
  <defs>
    <style>
      .cls-1 {
        fill: #910000;
      }

      .cls-2 {
        fill: #fff;
      }
    </style>
  </defs>
  <g id="Layer_1-2" data-name="Layer 1">
    <g>
      <g>
        <path d="M0,22.38v-.11c0-.08.05-.14.14-.14h1.79c.08,0,.14-.05.14-.14V6.5c0-.08-.05-.14-.14-.14H.17c-.08,0-.14-.06-.14-.14v-.11c0-.08.05-.14.14-.14h1.9c.74,0,1.43-.03,1.96-.06l.85-.08c.11-.03.17.03.17.11v15.96c0,.08.05.14.14.14h.41c5.4,0,5.51-2.07,6.09-6.83,0-.08.05-.14.14-.14h.14c.08,0,.14.05.14.14v7.17c0,.08-.06.14-.14.14H.14c-.08,0-.14-.05-.14-.14Z"/>
        <path d="M15.54,17.11V6.5c0-.08-.05-.14-.14-.14h-1.79c-.08,0-.14-.06-.14-.14v-.11c0-.08.05-.14.14-.14h12.54c.08,0,.14.05.14.14v4.68c0,.08-.05.14-.14.14h-.11s-.11-.03-.14-.14c-.58-3.33-1.57-4.33-4.68-4.33h-2.56c-.08,0-.14.05-.14.14v6.12l.08.03c.33-.41.96-.8,2.04-.8,2.12,0,4.08,1.05,4.08,3.86,0,.08-.05.14-.14.14h-2.62c-.08,0-.14-.06-.14-.14v-.14c0-.08.05-.14.14-.14h.22c.08,0,.14-.06.14-.14,0-2.09-.77-2.98-1.76-2.98-1.1,0-1.93.88-1.93,2.42v2.15c0,2.45.47,5.13,2.87,5.13,1.98,0,3.94-1.43,4.91-4.66.03-.08.08-.14.14-.14h.08c.08,0,.14.05.14.14v4.91c0,.08-.05.14-.14.14h-.14c-.08,0-.14-.05-.14-.14-.22-.41-.52-.63-.91-.63-.52,0-.94.22-1.49.47-.69.3-1.57.63-3.03.63-4.02,0-5.37-2.37-5.37-5.73Z"/>
        <path d="M29.52,22.38v-.11c0-.08.05-.14.14-.14h1.79c.08,0,.14-.05.14-.14V6.5c0-.08-.05-.14-.14-.14h-1.76c-.08,0-.14-.06-.14-.14v-.11c0-.08.05-.14.14-.14h3.5l1.13,1.27c.03.05.08.05.14,0,.85-1.1,2.15-1.6,3.5-1.6s2.81.55,3.83,1.54c.03.06.06.06.11,0,1.24-1.02,2.65-1.54,4.22-1.54,2.84,0,4.41,1.35,4.41,4.11v12.24c0,.08.06.14.14.14h1.79c.08,0,.14.05.14.14v.11c0,.08-.06.14-.14.14h-6.75c-.08,0-.14-.05-.14-.14v-.11c0-.08.06-.14.14-.14h1.79c.08,0,.14-.05.14-.14v-11.68c0-1.93-.66-3.97-2.56-3.97-.85,0-1.9.55-2.76,1.24-.03.03-.03.06,0,.08,1.41,1.65,2.48,3.89,2.48,6.31,0,2.07-.55,4.05-2.09,6.59l-1.1,1.82c-.06.08-.11.14-.14.14h-.47s-.08-.05-.14-.14l-1.21-1.82c-1.57-2.34-2.23-4.13-2.23-6.09,0-2.12,1.13-4.05,2.67-5.59.03-.03.03-.06,0-.08-.85-1.24-2.07-2.45-3-2.45-1.32,0-2.37,1.32-2.51,2.51v13.15c0,.08.05.14.14.14h1.79c.08,0,.14.05.14.14v.11c0,.08-.05.14-.14.14h-6.83c-.08,0-.14-.05-.14-.14ZM43.33,16.42c0-2.37-1.29-5.02-2.78-7.03-.03-.03-.05-.03-.08,0-.91.96-1.49,2.07-1.49,3.2,0,2.01,1.1,4,3.33,7.14h.11c.66-1.16.91-1.96.91-3.31Z"/>
        <path d="M59.37,21.69l-.05.03v.8c0,.11-.06.17-.17.17l-.83-.08c-.52-.03-1.16-.08-1.82-.08h-1.96c-.08,0-.14-.05-.14-.14v-.11c0-.08.05-.14.14-.14h1.79c.08,0,.14-.05.14-.14V6.5c0-.08-.05-.14-.14-.14h-1.79c-.08,0-.14-.06-.14-.14v-.11c0-.08.05-.14.14-.14h7.63c2.98,0,4.58.94,4.58,3.03,0,1.74-1.3,3.06-3.39,3.69v.11c2.54.3,4.41,2.26,4.41,4.93,0,4.19-2.98,5.1-5.18,5.1-1.57,0-2.48-.52-3.22-1.16ZM63.84,9.23c0-1.65-1.24-2.76-3.45-2.76h-.8c-.08,0-.14.05-.14.14v6.81l.11.08c3.22-1.16,4.27-2.56,4.27-4.27ZM64.47,17.5c0-2.56-1.27-4.11-2.7-4.11-1.02,0-1.9.5-2.31,1.32v5.87c.52,1.07,1.71,1.63,2.59,1.63,1.32,0,2.43-1.21,2.43-4.71Z"/>
        <path d="M80.23,18.6c-.11-2.29-.28-4.38-2.04-4.68-.08,0-.11-.06-.11-.14v-.17c0-.08.03-.14.11-.14,1.96-.3,2.78-1.16,2.78-3.44,0-1.82-1.16-3.25-2.42-3.25-1.65,0-3.44,2.01-3.44,7.5v7.72c0,.08.05.14.14.14h1.79c.08,0,.14.05.14.14v.11c0,.08-.05.14-.14.14h-6.83c-.08,0-.14-.05-.14-.14v-.11c0-.08.05-.14.14-.14h1.79c.08,0,.14-.05.14-.14V6.5c0-.08-.05-.14-.14-.14h-1.76c-.08,0-.14-.06-.14-.14v-.11c0-.08.05-.14.14-.14h1.9c.74,0,1.38-.03,1.9-.06.28-.03.52-.05.77-.08.11-.03.17.03.17.11v3.61l.05.08c.74-2.62,2.34-4,4.46-4,2.45,0,4.16,1.43,4.16,4.11,0,1.9-1.54,3.78-4.08,4v.08c1.85.19,2.76,1.21,3.2,2.42.22.63.39,1.3.41,1.98.08,2.15.17,4,1.41,4,.19,0,.39-.03.52-.06.14-.03.25-.03.28-.05.08-.03.14.08.14.17v.14c0,.06-.05.11-.14.14-.69.3-1.38.28-1.9.28-2.54,0-3.14-1.93-3.25-4.24Z"/>
        <path d="M87.02,22.38v-.11c0-.08.05-.14.14-.14h1.79c.08,0,.14-.05.14-.14V6.5c0-.08-.05-.14-.14-.14h-1.79c-.08,0-.14-.06-.14-.14v-.11c0-.08.05-.14.14-.14h6.83c.08,0,.14.05.14.14v.11c0,.08-.05.14-.14.14h-1.79c-.08,0-.14.05-.14.14v15.49c0,.08.05.14.14.14h1.79c.08,0,.14.05.14.14v.11c0,.08-.05.14-.14.14h-6.83c-.08,0-.14-.05-.14-.14ZM88.78,1.87c0-.99.85-1.87,1.87-1.87s1.85.88,1.85,1.87-.85,1.85-1.85,1.85-1.87-.88-1.87-1.85Z"/>
      </g>
      <g>
        <polygon points="97.43 20.02 95.69 20.88 98.54 8.52 100.09 8.66 97.43 20.02"/>
        <g>
          <g>
            <path d="M110.14,22.71h-14.68c0-.63.08-1.24.24-1.83h0c.39-1.53,1.25-2.85,2.42-3.82,1.27-1.06,2.91-1.69,4.68-1.69,4.06,0,7.34,3.29,7.34,7.34Z"/>
            <path class="cls-1" d="M104.52,22.71h-3.43c0-.12.01-.23.03-.35.14-.67.67-1.2,1.35-1.33.11-.02.22-.03.33-.03.12,0,.23.01.35.03.67.14,1.21.67,1.34,1.35.02.11.03.22.03.33Z"/>
            <path id="holder_big" class="cls-2" d="M104.43,20.89c-.82-.74-2.04-.84-2.97-.22-.69.45-1.1,1.22-1.1,2.03h0s1.42,0,1.42,0h0c-.01-.19-.16-.34-.35-.34-.11-.01-.21,0-.31-.01h-.04c.14-.71.71-1.25,1.39-1.37v.04c-.02.11-.01.2-.01.3,0,.2.15.35.34.36.19,0,.35-.15.35-.36,0-.1-.01-.2,0-.3v-.04c.71.14,1.24.69,1.38,1.39h-.04c-.13-.01-.25-.03-.38,0-.17.02-.29.18-.28.33h1.42c0-.68-.29-1.35-.82-1.82Z"/>
          </g>
          <circle cx="102.8" cy="10.24" r="4.6"/>
          <circle class="cls-1" cx="102.71" cy="10.24" r="1.72"/>
          <path id="holder_big-2" data-name="holder_big" class="cls-2" d="M104.34,8.42c-.82-.74-2.04-.84-2.97-.22-.69.45-1.1,1.22-1.1,2.03,0,.82.4,1.58,1.09,2.04,1.21.81,2.85.39,3.53-.91.52-1,.28-2.2-.54-2.94ZM104.07,10.58h.37c-.12.67-.67,1.24-1.37,1.38-.01-.13,0-.24,0-.37,0-.2-.17-.33-.35-.33-.18,0-.34.16-.33.35,0,.11-.01.21,0,.35-.69-.13-1.26-.69-1.39-1.39.14.01.25,0,.37,0,.2,0,.34-.17.33-.35,0-.19-.15-.33-.35-.34-.12,0-.23,0-.35,0,.14-.71.71-1.25,1.39-1.37-.02.13,0,.23,0,.35,0,.2.15.35.34.35.19,0,.35-.15.35-.35,0-.12,0-.23,0-.34.7.14,1.24.69,1.38,1.39-.14,0-.28-.02-.42,0-.18.03-.29.2-.28.36.02.17.15.31.33.32Z"/>
        </g>
      </g>
    </g>
  </g>
</svg>