<?xml version="1.0" encoding="UTF-8"?>
<svg id="Layer_2" data-name="Layer 2" xmlns="http://www.w3.org/2000/svg" viewBox="0 0 97.83 22.11">
  <defs>
    <style>
      .cls-1 {
        fill: #111;
      }

      .cls-2 {
        fill: #910000;
      }
    </style>
  </defs>
  <g id="Layer_1-2" data-name="Layer 1">
    <g>
      <g>
        <ellipse cx="92.2" cy="16.17" rx="5.64" ry="5.94"/>
        <ellipse class="cls-2" cx="92.2" cy="16.17" rx="1.32" ry="1.39"/>
        <ellipse cx="92.2" cy="2.47" rx="2.34" ry="2.47"/>
        <ellipse class="cls-2" cx="92.2" cy="2.47" rx="1.32" ry="1.39"/>
        <polygon points="87.43 14.76 86.82 14.6 90.02 1.59 90.62 1.75 87.43 14.76"/>
        <path id="holder_big" class="cls-1" d="M93.45,14.7c-.63-.6-1.57-.68-2.28-.18-.53.37-.85.99-.85,1.64,0,.66.31,1.28.84,1.65.93.66,2.19.32,2.71-.74.4-.81.22-1.78-.41-2.38ZM93.24,16.45h.28c-.1.54-.51,1-1.05,1.12,0-.1,0-.2,0-.3,0-.16-.13-.27-.27-.27-.14,0-.26.13-.26.28,0,.09,0,.17,0,.28-.53-.1-.97-.56-1.06-1.12.11.01.19,0,.28,0,.15,0,.26-.14.25-.28,0-.15-.12-.27-.27-.27-.09,0-.17,0-.27,0,.11-.57.54-1.01,1.06-1.11-.02.11,0,.19,0,.28,0,.16.12.28.26.29.15,0,.27-.12.27-.29,0-.09,0-.18,0-.28.54.12.95.56,1.06,1.12-.11,0-.22-.02-.33,0-.14.02-.23.16-.21.29.01.14.12.25.26.26Z"/>
        <path id="holder" class="cls-1" d="M93.45.99c-.63-.6-1.57-.68-2.28-.18-.53.37-.85.99-.85,1.64,0,.66.31,1.28.84,1.65.93.66,2.19.32,2.71-.74.4-.81.22-1.78-.41-2.38ZM93.24,2.74h.28c-.1.54-.51,1-1.05,1.12,0-.1,0-.2,0-.3,0-.16-.13-.27-.27-.27-.14,0-.26.13-.26.28,0,.09,0,.17,0,.28-.53-.1-.97-.56-1.06-1.12.11.01.19,0,.28,0,.15,0,.26-.14.25-.28,0-.15-.12-.27-.27-.27-.09,0-.17,0-.27,0,.11-.57.54-1.01,1.06-1.11-.02.11,0,.19,0,.28,0,.16.12.28.26.29.15,0,.27-.12.27-.29,0-.09,0-.18,0-.28.54.12.95.56,1.06,1.12-.11,0-.22-.02-.33,0-.14.02-.23.16-.21.29.01.14.12.25.26.26Z"/>
      </g>
      <g>
        <path d="M10.01,20.7H0V1.41h2.26v17.25h7.75v2.05Z"/>
        <path d="M23.2,20.7h-10.23V1.41h9.8v2.05h-7.54v6.42h6.97v2.03h-6.97v6.76h7.97v2.05Z"/>
        <path d="M44.44,20.7h-2.25V7.76c0-.51.01-1.09.05-1.74.03-.65.08-1.35.14-2.09h-.05c-.05.21-.13.46-.24.72-.11.26-.22.52-.34.77s-.23.47-.34.67c-.1.2-.18.35-.22.44l-4.95,9.15h-1.1l-4.95-9.13c-.04-.11-.12-.26-.23-.46s-.22-.43-.34-.67c-.12-.25-.23-.5-.33-.76-.1-.26-.18-.5-.24-.73h-.05c.04.39.06.91.08,1.56.02.65.03,1.42.03,2.3v12.92h-2.18V1.41h2.83l5.01,9.18c.22.4.4.78.55,1.13.15.35.26.65.34.92h.08c.09-.27.21-.58.36-.94.15-.36.34-.74.57-1.16l4.99-9.12h2.8v19.3Z"/>
        <path d="M49.5,20.7V1.41h5.49c1.67,0,2.99.41,3.97,1.22.98.82,1.47,1.88,1.47,3.19,0,1.09-.3,2.05-.89,2.85-.59.81-1.41,1.38-2.45,1.72v.05c1.3.15,2.34.64,3.12,1.47.78.83,1.17,1.91,1.17,3.24,0,1.65-.59,2.99-1.78,4.01-1.18,1.02-2.68,1.53-4.48,1.53h-5.63ZM51.76,3.45v6.23h2.32c1.24,0,2.21-.3,2.92-.9.71-.6,1.06-1.44,1.06-2.52,0-1.88-1.23-2.81-3.7-2.81h-2.6ZM51.76,11.71v6.94h3.07c1.33,0,2.36-.31,3.09-.94.73-.63,1.1-1.49,1.1-2.58,0-2.28-1.55-3.42-4.66-3.42h-2.6Z"/>
        <path d="M79.14,20.7h-2.69l-3.23-5.41c-.3-.5-.58-.93-.86-1.29-.28-.35-.56-.64-.85-.87-.29-.22-.61-.39-.94-.49-.34-.1-.72-.16-1.14-.16h-1.86v8.21h-2.26V1.41h5.76c.84,0,1.62.11,2.33.32.71.21,1.33.53,1.86.96.52.43.94.97,1.23,1.61s.44,1.39.44,2.25c0,.67-.1,1.29-.3,1.85-.2.56-.49,1.06-.86,1.5-.37.44-.82.81-1.35,1.12-.52.31-1.11.55-1.77.72v.05c.32.14.6.31.84.49.24.18.46.4.68.65.22.25.43.54.64.85s.45.69.71,1.11l3.62,5.8ZM67.56,3.45v7h3.07c.56,0,1.09-.08,1.57-.26.48-.17.9-.42,1.25-.73s.62-.71.82-1.17.3-.98.3-1.55c0-1.03-.33-1.84-1-2.42-.67-.58-1.63-.87-2.9-.87h-3.1Z"/>
        <path d="M84.05,20.7h-2.26V1.41h2.26v19.3Z"/>
      </g>
    </g>
  </g>
</svg>